<svg width="20" height="20" viewBox="0 0 20 20" fill="none" xmlns="http://www.w3.org/2000/svg">
<g id="dots-horizontal">
<g id="Icon">
<path d="M5.04167 9C4.46637 9 4 9.46637 4 10.0417C4 10.617 4.46637 11.0833 5.04167 11.0833H5.04915C5.62445 11.0833 6.09082 10.617 6.09082 10.0417C6.09082 9.46637 5.62445 9 5.04915 9H5.04167Z" fill="currentColor"/>
<path d="M8.99675 10.0417C8.99675 9.46637 9.46312 9 10.0384 9H10.0459C10.6212 9 11.0876 9.46637 11.0876 10.0417C11.0876 10.617 10.6212 11.0833 10.0459 11.0833H10.0384C9.46312 11.0833 8.99675 10.617 8.99675 10.0417Z" fill="currentColor"/>
<path d="M14 10.0417C14 9.46637 14.4664 9 15.0417 9H15.0492C15.6244 9 16.0908 9.46637 16.0908 10.0417C16.0908 10.617 15.6244 11.0833 15.0492 11.0833H15.0417C14.4664 11.0833 14 10.617 14 10.0417Z" fill="currentColor"/>
</g>
</g>
</svg>
