<svg width="20" height="20" viewBox="0 0 20 20" fill="none" xmlns="http://www.w3.org/2000/svg">
<g id="info">
<g id="Icon">
<path d="M9.57585 9.79266C9.51797 9.79173 9.45105 9.7917 9.36848 9.7917C9.0233 9.7917 8.74348 9.51188 8.74348 9.1667C8.74348 8.82152 9.0233 8.5417 9.36848 8.5417L9.39718 8.54169C9.56811 8.54163 9.75294 8.54155 9.90896 8.56253C10.0917 8.5871 10.3252 8.6503 10.5217 8.8468C10.7182 9.0433 10.7814 9.27679 10.806 9.45956C10.827 9.61557 10.8269 9.8004 10.8268 9.97133L10.8268 14.1667C10.8268 14.5119 10.547 14.7917 10.2018 14.7917C9.85664 14.7917 9.57681 14.5119 9.57681 14.1667V10C9.57681 9.91747 9.57679 9.85054 9.57585 9.79266Z" fill="currentColor"/>
<path d="M9.99348 5.83335C9.53324 5.83335 9.16015 6.20645 9.16015 6.66669C9.16015 7.12692 9.53324 7.50002 9.99348 7.50002H10.001C10.4612 7.50002 10.8343 7.12692 10.8343 6.66669C10.8343 6.20645 10.4612 5.83335 10.001 5.83335H9.99348Z" fill="currentColor"/>
<path fill-rule="evenodd" clip-rule="evenodd" d="M1.04166 10C1.04166 14.9476 5.05244 18.9584 9.99999 18.9584C14.9475 18.9584 18.9583 14.9476 18.9583 10C18.9583 5.05247 14.9475 1.04169 9.99999 1.04169C5.05244 1.04169 1.04166 5.05247 1.04166 10ZM9.99999 17.7084C5.74279 17.7084 2.29166 14.2572 2.29166 10C2.29166 5.74283 5.74279 2.29169 9.99999 2.29169C14.2572 2.29169 17.7083 5.74283 17.7083 10C17.7083 14.2572 14.2572 17.7084 9.99999 17.7084Z" fill="currentColor"/>
</g>
</g>
</svg>
