<svg width="20" height="20" viewBox="0 0 20 20" fill="none" xmlns="http://www.w3.org/2000/svg">
<g id="alert">
<g id="Icon">
<path d="M9.16018 13.3333C9.16018 12.8731 9.53327 12.5 9.99351 12.5H10.001C10.4612 12.5 10.8343 12.8731 10.8343 13.3333C10.8343 13.7936 10.4612 14.1667 10.001 14.1667H9.99351C9.53327 14.1667 9.16018 13.7936 9.16018 13.3333Z" fill="currentColor"/>
<path d="M9.37502 10.8333C9.37502 11.1785 9.65484 11.4583 10 11.4583C10.3452 11.4583 10.625 11.1785 10.625 10.8333V7.5C10.625 7.15482 10.3452 6.875 10 6.875C9.65484 6.875 9.37502 7.15482 9.37502 7.5V10.8333Z" fill="currentColor"/>
<path fill-rule="evenodd" clip-rule="evenodd" d="M8.63501 1.67916C9.52205 1.38472 10.478 1.38472 11.365 1.67916C12.2484 1.97239 12.942 2.66784 13.6388 3.64495C14.3333 4.61883 15.1007 5.97671 16.0899 7.72708L16.1287 7.7958C17.1181 9.54643 17.8854 10.9042 18.3636 12.0054C18.8442 13.1119 19.0835 14.0673 18.8926 14.9851C18.7003 15.9092 18.2262 16.7496 17.5357 17.3847C16.8469 18.0183 15.909 18.2856 14.728 18.414C13.5537 18.5417 12.0177 18.5417 10.0406 18.5417H9.9594C7.98237 18.5417 6.4463 18.5417 5.27204 18.414C4.09108 18.2856 3.15318 18.0183 2.46437 17.3847C1.77387 16.7496 1.29975 15.9092 1.10748 14.9851C0.916519 14.0673 1.15585 13.1119 1.6364 12.0054C2.11462 10.9042 2.88198 9.54642 3.87134 7.79579L3.91017 7.72708C4.89936 5.97672 5.66675 4.61883 6.36124 3.64495C7.05804 2.66784 7.75164 1.97239 8.63501 1.67916ZM10.9712 2.86551C10.3399 2.65593 9.66018 2.65593 9.02881 2.86551C8.53215 3.03037 8.03288 3.45375 7.37897 4.37071C6.72732 5.28452 5.99167 6.58453 4.9789 8.3766C3.9662 10.1686 3.23189 11.4696 2.78294 12.5033C2.33321 13.5389 2.22054 14.1983 2.33127 14.7305C2.47095 15.4018 2.81464 16.0085 3.31062 16.4648C3.70015 16.8231 4.30712 17.0517 5.40714 17.1713C6.50582 17.2908 7.97386 17.2917 10 17.2917C12.0262 17.2917 13.4942 17.2908 14.5929 17.1713C15.6929 17.0517 16.2999 16.8231 16.6894 16.4648C17.1854 16.0085 17.5291 15.4018 17.6688 14.7305C17.7795 14.1983 17.6668 13.5389 17.2171 12.5033C16.7682 11.4696 16.0338 10.1686 15.0211 8.3766C14.0084 6.58453 13.2727 5.28452 12.6211 4.37071C11.9672 3.45375 11.4679 3.03037 10.9712 2.86551Z" fill="currentColor"/>
</g>
</g>
</svg>
