<svg width="20" height="20" viewBox="0 0 20 20" fill="none" xmlns="http://www.w3.org/2000/svg">
<g id="arrow-left">
<path id="Icon" d="M2.70831 10C2.70832 10.3113 2.84636 10.6001 2.97708 10.817C3.11814 11.051 3.30785 11.2926 3.51597 11.5282C3.93346 12.0007 4.4782 12.5082 5.00684 12.9673C5.53859 13.429 6.0685 13.8542 6.46435 14.1632C6.66261 14.3179 6.82801 14.4441 6.94418 14.5319C7.00228 14.5758 7.04811 14.6101 7.07963 14.6336L7.11594 14.6606L7.12557 14.6677L7.12891 14.6702C7.40683 14.8749 7.79844 14.8158 8.00316 14.5379C8.20787 14.26 8.14855 13.8687 7.87066 13.664L7.86005 13.6562L7.82668 13.6314C7.79716 13.6094 7.75348 13.5767 7.69765 13.5345C7.58595 13.4501 7.42583 13.3279 7.23347 13.1778C6.84808 12.877 6.33634 12.4662 5.82642 12.0234C5.31341 11.578 4.81649 11.1123 4.45274 10.7005C4.42973 10.6745 4.40747 10.6489 4.38595 10.6238L16.6667 10.6238C17.0118 10.6238 17.2917 10.344 17.2917 9.99877C17.2917 9.6536 17.0118 9.37377 16.6667 9.37377L4.38806 9.37378C4.40892 9.34944 4.43049 9.32467 4.45274 9.29948C4.81649 8.88775 5.31341 8.42206 5.82642 7.97657C6.33634 7.53377 6.84808 7.12303 7.23347 6.82222C7.42583 6.67208 7.58595 6.54991 7.69764 6.46554C7.75347 6.42336 7.79716 6.39066 7.82667 6.36866L7.86005 6.34385L7.87066 6.33601C8.14854 6.13128 8.20787 5.74005 8.00316 5.46214C7.79844 5.18422 7.40683 5.12515 7.12891 5.32987L7.12557 5.33233L7.11594 5.33946L7.07963 5.36645C7.04811 5.38994 7.00228 5.42425 6.94418 5.46815C6.82801 5.55591 6.66261 5.6821 6.46435 5.83685C6.0685 6.14583 5.53858 6.571 5.00684 7.03276C4.4782 7.49181 3.93346 7.9993 3.51597 8.47186C3.30785 8.70742 3.11814 8.94903 2.97708 9.18304C2.84714 9.3986 2.70997 9.68525 2.70833 9.99441" fill="currentColor"/>
</g>
</svg>
