<svg width="20" height="20" viewBox="0 0 20 20" fill="none" xmlns="http://www.w3.org/2000/svg">
<g id="chevron-down">
<path id="Icon" d="M5.5031 8.1294C5.60467 8.26388 5.90793 8.66534 6.08853 8.89676C6.45026 9.36027 6.94452 9.97618 7.47769 10.5903C8.01356 11.2074 8.57648 11.8085 9.07658 12.2504C9.32734 12.472 9.54762 12.6403 9.72939 12.7499C9.90035 12.853 10.0013 12.8744 10.0013 12.8744C10.0013 12.8744 10.0994 12.853 10.2703 12.7499C10.4521 12.6403 10.6724 12.472 10.9231 12.2504C11.4232 11.8085 11.9861 11.2074 12.522 10.5902C13.0552 9.97616 13.5494 9.36025 13.9112 8.89673C14.0918 8.66531 14.3946 8.26442 14.4962 8.12994C14.7009 7.852 15.0925 7.79206 15.3705 7.99675C15.6484 8.20145 15.7078 8.59269 15.5031 8.87063L15.5015 8.8727C15.395 9.01371 15.0809 9.42961 14.8966 9.66577C14.5267 10.1398 14.018 10.7738 13.4659 11.4098C12.9165 12.0426 12.3117 12.6915 11.7508 13.1871C11.471 13.4343 11.1875 13.6566 10.9157 13.8204C10.661 13.9739 10.3386 14.125 9.99985 14.125C9.66109 14.125 9.33868 13.9739 9.08404 13.8204C8.81223 13.6566 8.52866 13.4343 8.24891 13.1871C7.68798 12.6915 7.08325 12.0426 6.53382 11.4098C5.98169 10.7739 5.473 10.1398 5.1031 9.6658C4.91867 9.42947 4.60449 9.01352 4.49823 8.87283L4.4969 8.87107C4.2922 8.59314 4.35128 8.20149 4.62922 7.99679C4.90714 7.79211 5.2984 7.85149 5.5031 8.1294Z" fill="currentColor"/>
</g>
</svg>
