<svg width="20" height="20" viewBox="0 0 20 20" fill="none" xmlns="http://www.w3.org/2000/svg">
<g id="football">
<path id="Icon" fill-rule="evenodd" clip-rule="evenodd" d="M10.0001 1.04169C5.05253 1.04169 1.04175 5.05247 1.04175 10C1.04175 14.9476 5.05253 18.9584 10.0001 18.9584C14.9476 18.9584 18.9584 14.9476 18.9584 10C18.9584 5.05247 14.9476 1.04169 10.0001 1.04169ZM8.9779 2.35887C9.31233 2.31456 9.65354 2.29169 10.0001 2.29169C10.3503 2.29169 10.6951 2.31505 11.033 2.36029L10.0121 3.08652L8.9779 2.35887ZM7.36631 2.75336C5.85099 3.30423 4.55733 4.31685 3.65546 5.62109L4.82462 8.27022L7.31681 8.89326C7.36992 8.82706 7.43175 8.7665 7.50194 8.71337L9.37523 7.29548V4.16682L7.36631 2.75336ZM10.6252 4.18437V7.29586L12.3095 8.5707L15.1185 7.51735L16.0159 5.17999C15.1407 4.08904 13.9748 3.24126 12.6358 2.75407L10.6252 4.18437ZM16.8574 6.4757L16.4238 7.60482L17.5497 8.43639C17.4072 7.74443 17.1719 7.08635 16.8574 6.4757ZM17.7077 10.107L15.7091 8.63088L12.9099 9.68056C12.9024 9.74776 12.8885 9.81469 12.868 9.88041L12.1676 12.126C12.1743 12.1349 12.1807 12.144 12.1869 12.1533L13.8485 14.6456L15.8589 15.0095C16.9904 13.6874 17.6822 11.9777 17.7077 10.107ZM14.742 16.0777L13.4266 15.8396L12.9799 17.1113C13.615 16.8448 14.2068 16.4958 14.742 16.0777ZM11.4963 17.5632L12.4238 14.9226C12.4356 14.8889 12.45 14.8569 12.4668 14.8266L11.1932 12.9162C11.1822 12.9165 11.1712 12.9167 11.1602 12.9167H8.83975C8.72446 12.9167 8.6138 12.8977 8.51051 12.8627L7.33459 14.3326L7.30628 17.2246C8.14483 17.5374 9.05249 17.7084 10.0001 17.7084C10.512 17.7084 11.0123 17.6584 11.4963 17.5632ZM6.06206 16.6279L6.07861 14.9374L4.09811 14.9586C4.65325 15.6187 5.31709 16.1843 6.06206 16.6279ZM3.33132 13.8686L3.32969 13.7168L6.2515 13.6854L7.73885 11.8263L7.21826 10.1571L4.37215 9.44557L2.34851 10.9402C2.47704 11.9972 2.81951 12.9882 3.33132 13.8686ZM2.31385 9.41182L3.55693 8.4937L2.89752 6.99957C2.57998 7.75031 2.37799 8.56183 2.31385 9.41182ZM8.36303 9.6293L9.99998 8.3903L11.6369 9.6293L11.0015 11.6667H8.99847L8.36303 9.6293Z" fill="currentColor"/>
</g>
</svg>
