<svg width="20" height="20" viewBox="0 0 20 20" fill="none" xmlns="http://www.w3.org/2000/svg">
<g id="info">
<g id="Icon">
<path d="M9.57582 9.79263C9.51794 9.7917 9.45101 9.79167 9.36845 9.79167C9.02327 9.79167 8.74345 9.51185 8.74345 9.16667C8.74345 8.82149 9.02327 8.54167 9.36845 8.54167L9.39715 8.54166C9.56808 8.5416 9.75291 8.54152 9.90893 8.5625C10.0917 8.58707 10.3252 8.65027 10.5217 8.84677C10.7182 9.04327 10.7814 9.27676 10.806 9.45953C10.8269 9.61554 10.8269 9.80037 10.8268 9.9713L10.8268 14.1667C10.8268 14.5118 10.547 14.7917 10.2018 14.7917C9.8566 14.7917 9.57678 14.5118 9.57678 14.1667V10C9.57678 9.91744 9.57675 9.85051 9.57582 9.79263Z" fill="currentColor"/>
<path d="M9.99345 5.83332C9.53321 5.83332 9.16012 6.20642 9.16012 6.66666C9.16012 7.12689 9.53321 7.49999 9.99345 7.49999H10.0009C10.4612 7.49999 10.8343 7.12689 10.8343 6.66666C10.8343 6.20642 10.4612 5.83332 10.0009 5.83332H9.99345Z" fill="currentColor"/>
<path fill-rule="evenodd" clip-rule="evenodd" d="M1.04163 9.99999C1.04163 14.9475 5.05241 18.9583 9.99996 18.9583C14.9475 18.9583 18.9583 14.9475 18.9583 9.99999C18.9583 5.05244 14.9475 1.04166 9.99996 1.04166C5.05241 1.04166 1.04163 5.05244 1.04163 9.99999ZM9.99996 17.7083C5.74276 17.7083 2.29163 14.2572 2.29163 9.99999C2.29163 5.74279 5.74276 2.29166 9.99996 2.29166C14.2572 2.29166 17.7083 5.74279 17.7083 9.99999C17.7083 14.2572 14.2572 17.7083 9.99996 17.7083Z" fill="currentColor"/>
</g>
</g>
</svg>
