<svg width="20" height="20" viewBox="0 0 20 20" fill="none" xmlns="http://www.w3.org/2000/svg">
<g id="moon">
<path id="Icon" fill-rule="evenodd" clip-rule="evenodd" d="M8.76349 1.70241C8.91306 1.89702 8.93488 2.16115 8.81927 2.37766C8.33264 3.28903 8.05652 4.33 8.05652 5.43732C8.05652 9.0305 10.9694 11.9433 14.5625 11.9433C15.6699 11.9433 16.7108 11.6672 17.6222 11.1806C17.8387 11.065 18.1028 11.0868 18.2974 11.2364C18.4921 11.3859 18.5811 11.6356 18.5251 11.8745C17.6295 15.6957 14.2007 18.5416 10.1057 18.5416C5.32982 18.5416 1.45825 14.67 1.45825 9.89421C1.45825 5.79916 4.30413 2.37032 8.12533 1.47477C8.3643 1.41876 8.61393 1.50781 8.76349 1.70241ZM7.16357 3.10479C4.54179 4.24245 2.70825 6.85478 2.70825 9.89421C2.70825 13.9797 6.02018 17.2916 10.1057 17.2916C13.1451 17.2916 15.7574 15.4581 16.8951 12.8363C16.1585 13.0683 15.3748 13.1933 14.5625 13.1933C10.279 13.1933 6.80652 9.72085 6.80652 5.43732C6.80652 4.6251 6.93156 3.84138 7.16357 3.10479Z" fill="currentColor"/>
</g>
</svg>
