<svg width="20" height="20" viewBox="0 0 20 20" fill="none" xmlns="http://www.w3.org/2000/svg">
<g id="refresh">
<g id="Icon">
<path d="M14.9135 2.12959C15.1182 1.85165 15.5094 1.79228 15.7874 1.99698L15.7896 1.9986L15.7947 2.00242L15.8136 2.01646C15.8299 2.02858 15.8533 2.04613 15.8829 2.0685C15.9421 2.11322 16.0262 2.17732 16.1268 2.25583C16.3273 2.41234 16.5968 2.62851 16.8681 2.86409C17.1364 3.09698 17.4207 3.36114 17.6429 3.61261C17.7534 3.73763 17.8617 3.87425 17.9458 4.01375C18.0195 4.13611 18.125 4.34089 18.125 4.58357C18.125 4.82626 18.0195 5.03104 17.9458 5.15339C17.8617 5.2929 17.7533 5.42952 17.6429 5.55454C17.4207 5.806 17.1364 6.07016 16.8681 6.30305C16.5968 6.53863 16.3273 6.75479 16.1267 6.9113C16.0261 6.98981 15.9421 7.0539 15.8829 7.09862C15.8533 7.12099 15.7873 7.17014 15.7873 7.17014C15.5094 7.37483 15.1182 7.31546 14.9135 7.03752C14.7088 6.7596 14.7681 6.36839 15.046 6.16369L15.0507 6.16024L15.0666 6.14839C15.0809 6.13776 15.1022 6.12182 15.1295 6.10116C15.1843 6.05983 15.263 5.99976 15.3577 5.92586C15.5478 5.77752 15.7991 5.57579 16.0486 5.35917C16.1064 5.30897 16.1634 5.25861 16.2189 5.20852H7.91667C5.16094 5.20852 3.125 7.17269 3.125 10.0002C3.125 10.3454 2.84518 10.6252 2.5 10.6252C2.15482 10.6252 1.875 10.3454 1.875 10.0002C1.875 6.4694 4.4836 3.95852 7.91667 3.95852H16.2188C16.1633 3.90845 16.1064 3.85812 16.0486 3.80796C15.7991 3.59133 15.5478 3.3896 15.3577 3.24126C15.263 3.16735 15.1843 3.10729 15.1295 3.06595C15.1022 3.04529 15.0809 3.02935 15.0666 3.01872L15.0507 3.00686L15.0461 3.0035C14.7682 2.79879 14.7088 2.4075 14.9135 2.12959Z" fill="currentColor"/>
<path d="M5.08656 17.8704C4.88186 18.1483 4.49061 18.2077 4.21268 18.003L4.21049 18.0014L4.20532 17.9975L4.18644 17.9835C4.17017 17.9714 4.14672 17.9538 4.1171 17.9315C4.0579 17.8867 3.97388 17.8226 3.87328 17.7441C3.67273 17.5876 3.40323 17.3715 3.1319 17.1359C2.86367 16.903 2.57934 16.6388 2.35715 16.3874C2.24669 16.2623 2.13836 16.1257 2.05426 15.9862C1.9805 15.8639 1.875 15.6591 1.875 15.4164C1.875 15.1737 1.9805 14.9689 2.05426 14.8466C2.13836 14.7071 2.24669 14.5704 2.35716 14.4454C2.57935 14.194 2.86368 13.9298 3.13191 13.6969C3.40325 13.4613 3.67275 13.2452 3.8733 13.0887C3.9739 13.0102 4.05792 12.9461 4.11713 12.9013C4.14675 12.879 4.21271 12.8298 4.21271 12.8298C4.49064 12.6251 4.88189 12.6845 5.08658 12.9624C5.29126 13.2404 5.23191 13.6316 4.95402 13.8363L4.94937 13.8397L4.93341 13.8516C4.91916 13.8622 4.89785 13.8781 4.8705 13.8988C4.81578 13.9401 4.73704 14.0002 4.64233 14.0741C4.45225 14.2224 4.20092 14.4242 3.95142 14.6408C3.8936 14.691 3.83663 14.7413 3.78113 14.7914L12.0834 14.7914C14.8391 14.7914 16.875 12.8273 16.875 9.99978C16.875 9.6546 17.1549 9.37478 17.5 9.37478C17.8452 9.37478 18.125 9.6546 18.125 9.99978C18.125 13.5306 15.5164 16.0414 12.0834 16.0414L3.78124 16.0414C3.83671 16.0915 3.89364 16.1418 3.95142 16.192C4.20092 16.4086 4.45225 16.6104 4.64232 16.7587C4.73703 16.8326 4.81577 16.8927 4.8705 16.934C4.89784 16.9547 4.91915 16.9706 4.93341 16.9812L4.94936 16.9931L4.95391 16.9965C5.2318 17.2012 5.29124 17.5925 5.08656 17.8704Z" fill="currentColor"/>
</g>
</g>
</svg>
