<svg width="20" height="20" viewBox="0 0 20 20" fill="none" xmlns="http://www.w3.org/2000/svg">
<g id="sidebar-left">
<g id="Icon">
<path d="M4.16675 5.20833C3.82157 5.20833 3.54175 5.48816 3.54175 5.83333C3.54175 6.17851 3.82157 6.45833 4.16675 6.45833H5.00008C5.34526 6.45833 5.62508 6.17851 5.62508 5.83333C5.62508 5.48816 5.34526 5.20833 5.00008 5.20833H4.16675Z" fill="currentColor"/>
<path d="M4.16675 7.70833C3.82157 7.70833 3.54175 7.98816 3.54175 8.33333C3.54175 8.67851 3.82157 8.95833 4.16675 8.95833H5.00008C5.34526 8.95833 5.62508 8.67851 5.62508 8.33333C5.62508 7.98816 5.34526 7.70833 5.00008 7.70833H4.16675Z" fill="currentColor"/>
<path fill-rule="evenodd" clip-rule="evenodd" d="M8.29303 1.875H11.7071C13.0392 1.87499 14.0946 1.87498 14.9357 1.97472C15.8009 2.07732 16.5119 2.29208 17.1211 2.77199C17.5386 3.1009 17.8983 3.50664 18.1859 3.96872C18.5984 4.6315 18.7821 5.39864 18.8709 6.34693C18.9584 7.28089 18.9584 8.45783 18.9584 9.96715V10.0329C18.9584 11.5422 18.9584 12.7191 18.8709 13.6531C18.7821 14.6014 18.5984 15.3685 18.1859 16.0313C17.8983 16.4934 17.5386 16.8991 17.1211 17.228C16.5119 17.7079 15.8009 17.9227 14.9357 18.0253C14.0946 18.125 13.0393 18.125 11.7072 18.125H8.29305C6.96099 18.125 5.90552 18.125 5.06447 18.0253C4.19922 17.9227 3.4883 17.7079 2.87909 17.228C2.46153 16.8991 2.10191 16.4934 1.81431 16.0313C1.40179 15.3685 1.2181 14.6014 1.12925 13.6531C1.04174 12.7191 1.04174 11.5422 1.04175 10.0329V9.96711C1.04174 8.45781 1.04174 7.28088 1.12925 6.34693C1.2181 5.39864 1.40179 4.6315 1.81431 3.96872C2.10191 3.50664 2.46153 3.1009 2.87909 2.77199C3.4883 2.29208 4.19922 2.07732 5.06447 1.97472C5.90554 1.87498 6.96093 1.87499 8.29303 1.875ZM5.21167 3.21602C4.46844 3.30416 4.01191 3.47087 3.65259 3.75392C3.35347 3.98954 3.08976 4.28506 2.87554 4.62923C2.60989 5.05606 2.45449 5.60229 2.3738 6.46354C2.29239 7.33236 2.29175 8.45083 2.29175 10C2.29175 11.5492 2.29239 12.6676 2.3738 13.5365C2.45449 14.3977 2.60989 14.9439 2.87554 15.3708C3.08976 15.7149 3.35347 16.0105 3.65259 16.2461C4.01191 16.5291 4.46844 16.6958 5.21167 16.784C5.76426 16.8495 6.43473 16.8679 7.29175 16.873L7.29175 3.127C6.43473 3.13213 5.76426 3.15049 5.21167 3.21602ZM11.6667 16.875H8.54175L8.54175 3.125H11.6667C13.0483 3.125 14.0296 3.12602 14.7885 3.21602C15.5317 3.30416 15.9883 3.47087 16.3476 3.75392C16.6467 3.98954 16.9104 4.28506 17.1246 4.62923C17.3903 5.05606 17.5457 5.60229 17.6264 6.46354C17.7078 7.33236 17.7084 8.45083 17.7084 10C17.7084 11.5492 17.7078 12.6676 17.6264 13.5365C17.5457 14.3977 17.3903 14.9439 17.1246 15.3708C16.9104 15.7149 16.6467 16.0105 16.3476 16.2461C15.9883 16.5291 15.5317 16.6958 14.7885 16.784C14.0296 16.874 13.0483 16.875 11.6667 16.875Z" fill="currentColor"/>
</g>
</g>
</svg>
