<svg width="20" height="20" viewBox="0 0 20 20" fill="none" xmlns="http://www.w3.org/2000/svg">
<g id="sidebar-right">
<g id="Icon">
<path d="M15.0001 5.20833C14.6549 5.20833 14.3751 5.48816 14.3751 5.83333C14.3751 6.17851 14.6549 6.45833 15.0001 6.45833H15.8334C16.1786 6.45833 16.4584 6.17851 16.4584 5.83333C16.4584 5.48816 16.1786 5.20833 15.8334 5.20833H15.0001Z" fill="currentColor"/>
<path d="M15.0001 7.70833C14.6549 7.70833 14.3751 7.98816 14.3751 8.33333C14.3751 8.67851 14.6549 8.95833 15.0001 8.95833H15.8334C16.1786 8.95833 16.4584 8.67851 16.4584 8.33333C16.4584 7.98816 16.1786 7.70833 15.8334 7.70833H15.0001Z" fill="currentColor"/>
<path fill-rule="evenodd" clip-rule="evenodd" d="M8.29303 1.875H11.7071C13.0392 1.87499 14.0946 1.87498 14.9357 1.97472C15.8009 2.07732 16.5119 2.29208 17.1211 2.77199C17.5386 3.1009 17.8983 3.50664 18.1859 3.96872C18.5984 4.6315 18.7821 5.39864 18.8709 6.34693C18.9584 7.28089 18.9584 8.45783 18.9584 9.96715V10.0329C18.9584 11.5422 18.9584 12.7191 18.8709 13.6531C18.7821 14.6014 18.5984 15.3685 18.1859 16.0313C17.8983 16.4934 17.5386 16.8991 17.1211 17.228C16.5119 17.7079 15.8009 17.9227 14.9357 18.0253C14.0946 18.125 13.0393 18.125 11.7072 18.125H8.29305C6.96099 18.125 5.90552 18.125 5.06447 18.0253C4.19922 17.9227 3.4883 17.7079 2.87909 17.228C2.46153 16.8991 2.10191 16.4934 1.81431 16.0313C1.40179 15.3685 1.2181 14.6014 1.12925 13.6531C1.04174 12.7191 1.04174 11.5422 1.04175 10.0329V9.96711C1.04174 8.45781 1.04174 7.28088 1.12925 6.34693C1.2181 5.39864 1.40179 4.6315 1.81431 3.96872C2.10191 3.50664 2.46153 3.1009 2.87909 2.77199C3.4883 2.29208 4.19922 2.07732 5.06447 1.97472C5.90554 1.87498 6.96093 1.87499 8.29303 1.875ZM5.21167 3.21602C4.46844 3.30416 4.01191 3.47087 3.65259 3.75392C3.35347 3.98954 3.08976 4.28506 2.87554 4.62923C2.60989 5.05606 2.45449 5.60229 2.3738 6.46354C2.29239 7.33236 2.29175 8.45083 2.29175 10C2.29175 11.5492 2.29239 12.6676 2.3738 13.5365C2.45449 14.3977 2.60989 14.9439 2.87554 15.3708C3.08976 15.7149 3.35347 16.0105 3.65259 16.2461C4.01191 16.5291 4.46844 16.6958 5.21167 16.784C5.9706 16.874 6.9519 16.875 8.33341 16.875H11.4584L11.4584 3.125H8.33341C6.9519 3.125 5.9706 3.12602 5.21167 3.21602ZM14.7885 16.784C14.2359 16.8495 13.5654 16.8679 12.7084 16.873L12.7084 3.127C13.5654 3.13213 14.2359 3.15049 14.7885 3.21602C15.5317 3.30416 15.9883 3.47087 16.3476 3.75392C16.6467 3.98954 16.9104 4.28506 17.1246 4.62923C17.3903 5.05606 17.5457 5.60229 17.6264 6.46354C17.7078 7.33236 17.7084 8.45083 17.7084 10C17.7084 11.5492 17.7078 12.6676 17.6264 13.5365C17.5457 14.3977 17.3903 14.9439 17.1246 15.3708C16.9104 15.7149 16.6467 16.0105 16.3476 16.2461C15.9883 16.5291 15.5317 16.6958 14.7885 16.784Z" fill="currentColor"/>
</g>
</g>
</svg>
