<svg width="20" height="20" viewBox="0 0 20 20" fill="none" xmlns="http://www.w3.org/2000/svg">
<g id="star">
<path id="Icon" fill-rule="evenodd" clip-rule="evenodd" d="M9.10779 3.14833C9.10769 3.14854 9.10789 3.14813 9.10779 3.14833L7.64285 6.10242C7.48734 6.42115 7.22721 6.69415 6.95934 6.89441C6.69091 7.09509 6.35683 7.26596 6.01254 7.32491L6.01032 7.32529L3.3526 7.7705C2.61354 7.8947 2.3707 8.18806 2.31377 8.36781C2.25609 8.54993 2.28735 8.93473 2.81788 9.46964L4.88431 11.5532C5.15243 11.8235 5.33156 12.1847 5.43029 12.5325C5.52915 12.8807 5.56597 13.2806 5.48395 13.6495L5.48304 13.6536L4.89142 16.2328C4.67064 17.1948 4.89362 17.5496 5.00883 17.6343C5.12087 17.7167 5.51862 17.8251 6.36106 17.321L8.85712 15.8312C9.20412 15.6277 9.61987 15.5437 10.0014 15.5437C10.3823 15.5437 10.7982 15.6274 11.1435 15.8337C11.1434 15.8336 11.1436 15.8337 11.1435 15.8337L13.6344 17.3204C13.6343 17.3203 13.6345 17.3205 13.6344 17.3204C14.4838 17.8262 14.8811 17.7182 14.9911 17.6373C15.1037 17.5545 15.3266 17.2019 15.105 16.2324L14.5126 13.6495C14.4306 13.2806 14.4674 12.8807 14.5663 12.5325C14.665 12.1847 14.8441 11.8235 15.1122 11.5532L17.1787 9.46964L17.1802 9.46813C17.7142 8.93336 17.7439 8.54959 17.6863 8.36893C17.6288 8.18869 17.3837 7.8948 16.644 7.7705L13.9862 7.32529C13.6384 7.26684 13.3017 7.09661 13.0311 6.89528C12.7614 6.69462 12.501 6.42134 12.3454 6.10242L10.8793 3.146C10.5274 2.4327 10.1705 2.29102 9.99724 2.29102C9.82287 2.29102 9.46373 2.43463 9.10779 3.14833ZM12.0001 2.59261C11.5604 1.70146 10.8716 1.04102 9.99724 1.04102C9.12385 1.04102 8.43296 1.70025 7.98909 2.59066L7.98851 2.59183L6.522 5.54907L6.51975 5.55365C6.47515 5.64548 6.36933 5.7748 6.21089 5.89325C6.05274 6.01148 5.8998 6.07581 5.80243 6.0927C5.80215 6.09275 5.80187 6.09279 5.80159 6.09284L3.14576 6.53773C2.18501 6.69918 1.38182 7.17039 1.12211 7.99039C0.863161 8.80802 1.24436 9.65821 1.93036 10.3499L3.9968 12.4334C4.07864 12.5159 4.17032 12.6714 4.22782 12.8739C4.28493 13.075 4.29 13.2582 4.2641 13.3766C4.26398 13.3772 4.26386 13.3777 4.26374 13.3783L3.67308 15.9533C3.67307 15.9533 3.67309 15.9533 3.67308 15.9533C3.42727 17.0244 3.51256 18.0854 4.26808 18.6412C5.02677 19.1994 6.0622 18.9566 7.00289 18.3937L9.48961 16.9094C9.49014 16.9091 9.49066 16.9088 9.49119 16.9085C9.60263 16.8437 9.7861 16.7937 10.0014 16.7937C10.2183 16.7937 10.398 16.8443 10.5026 16.9069L12.9943 18.394C13.9361 18.955 14.9728 19.2021 15.7314 18.6445C16.4874 18.0888 16.5686 17.0258 16.3236 15.9538L15.7328 13.3783C15.7327 13.3777 15.7326 13.3772 15.7325 13.3766C15.7066 13.2582 15.7116 13.075 15.7687 12.8739C15.8262 12.6714 15.9179 12.5159 15.9998 12.4334L18.0647 10.3514C18.0649 10.3512 18.0651 10.3509 18.0654 10.3507C18.7558 9.65902 19.1382 8.80809 18.8772 7.98927C18.616 7.16976 17.8112 6.69913 16.8511 6.53779L14.1931 6.09252C14.0909 6.07536 13.9357 6.0103 13.7772 5.89238C13.6185 5.77433 13.513 5.64529 13.4685 5.55365L12.0001 2.59261C12.0002 2.59274 12 2.59248 12.0001 2.59261Z" fill="currentColor"/>
</g>
</svg>
