<svg width="20" height="20" viewBox="0 0 20 20" fill="none" xmlns="http://www.w3.org/2000/svg">
<g id="sun">
<g id="Icon">
<path d="M10.6251 1.66663C10.6251 1.32145 10.3453 1.04163 10.0001 1.04163C9.6549 1.04163 9.37508 1.32145 9.37508 1.66663V2.91663C9.37508 3.2618 9.6549 3.54163 10.0001 3.54163C10.3453 3.54163 10.6251 3.2618 10.6251 2.91663V1.66663Z" fill="currentColor"/>
<path d="M4.54919 3.66518C4.30511 3.4211 3.90938 3.4211 3.6653 3.66518C3.42123 3.90926 3.42123 4.30499 3.6653 4.54907L4.54919 5.43295C4.79327 5.67703 5.18899 5.67703 5.43307 5.43295C5.67715 5.18887 5.67715 4.79314 5.43307 4.54907L4.54919 3.66518Z" fill="currentColor"/>
<path d="M16.3348 4.54916C16.5788 4.30508 16.5788 3.90935 16.3348 3.66528C16.0907 3.4212 15.695 3.4212 15.4509 3.66528L14.567 4.54916C14.3229 4.79324 14.3229 5.18897 14.567 5.43304C14.8111 5.67712 15.2068 5.67712 15.4509 5.43304L16.3348 4.54916Z" fill="currentColor"/>
<path d="M1.66675 9.37496C1.32157 9.37496 1.04175 9.65478 1.04175 9.99996C1.04175 10.3451 1.32157 10.625 1.66675 10.625H2.91675C3.26193 10.625 3.54175 10.3451 3.54175 9.99996C3.54175 9.65478 3.26193 9.37496 2.91675 9.37496H1.66675Z" fill="currentColor"/>
<path d="M17.0834 9.37496C16.7382 9.37496 16.4584 9.65478 16.4584 9.99996C16.4584 10.3451 16.7382 10.625 17.0834 10.625H18.3334C18.6786 10.625 18.9584 10.3451 18.9584 9.99996C18.9584 9.65478 18.6786 9.37496 18.3334 9.37496H17.0834Z" fill="currentColor"/>
<path d="M15.4505 14.5669C15.2064 14.3228 14.8107 14.3228 14.5666 14.5669C14.3225 14.811 14.3225 15.2067 14.5666 15.4508L15.4505 16.3346C15.6946 16.5787 16.0903 16.5787 16.3344 16.3346C16.5784 16.0906 16.5784 15.6948 16.3344 15.4508L15.4505 14.5669Z" fill="currentColor"/>
<path d="M5.43348 15.4509C5.67756 15.2068 5.67756 14.811 5.43348 14.567C5.1894 14.3229 4.79367 14.3229 4.54959 14.567L3.66571 15.4509C3.42163 15.6949 3.42163 16.0907 3.66571 16.3347C3.90979 16.5788 4.30552 16.5788 4.54959 16.3347L5.43348 15.4509Z" fill="currentColor"/>
<path d="M10.6251 17.0833C10.6251 16.7381 10.3453 16.4583 10.0001 16.4583C9.6549 16.4583 9.37508 16.7381 9.37508 17.0833V18.3333C9.37508 18.6785 9.6549 18.9583 10.0001 18.9583C10.3453 18.9583 10.6251 18.6785 10.6251 18.3333V17.0833Z" fill="currentColor"/>
<path fill-rule="evenodd" clip-rule="evenodd" d="M10.0001 5.20829C7.35372 5.20829 5.20841 7.35359 5.20841 9.99996C5.20841 12.6463 7.35372 14.7916 10.0001 14.7916C12.6464 14.7916 14.7917 12.6463 14.7917 9.99996C14.7917 7.35359 12.6464 5.20829 10.0001 5.20829ZM6.45841 9.99996C6.45841 8.04395 8.04407 6.45829 10.0001 6.45829C11.9561 6.45829 13.5417 8.04395 13.5417 9.99996C13.5417 11.956 11.9561 13.5416 10.0001 13.5416C8.04407 13.5416 6.45841 11.956 6.45841 9.99996Z" fill="currentColor"/>
</g>
</g>
</svg>
